<svg t="1611215670100" class="icon" viewBox="0 0 1024 1024" version="1.1" xmlns="http://www.w3.org/2000/svg" p-id="2306" width="200" height="200"><path d="M857.208471 191.548235A481.882353 481.882353 0 1 1 175.766588 873.050353 481.882353 481.882353 0 0 1 857.148235 191.548235z m-493.929412 145.588706a30.117647 30.117647 0 0 0-38.430118 46.08l149.022118 149.082353-149.022118 149.082353-3.493647 4.216471a30.117647 30.117647 0 0 0 46.08 38.369882l149.022118-149.082353 149.082353 149.082353 4.21647 3.493647a30.117647 30.117647 0 0 0 38.369883-46.08L559.104 532.299294l149.022118-149.082353 3.493647-4.21647a30.117647 30.117647 0 0 0-46.08-38.369883L516.457412 489.712941 367.435294 340.630588z" p-id="2307"></path></svg>